<?xml version="1.0" standalone="no"?>
<!DOCTYPE svg PUBLIC "-//W3C//DTD SVG 20010904//EN"
 "http://www.w3.org/TR/2001/REC-SVG-20010904/DTD/svg10.dtd">
<svg version="1.0" xmlns="http://www.w3.org/2000/svg"
 width="1250.000000pt" height="1250.000000pt" viewBox="0 0 1250.000000 1250.000000"
 preserveAspectRatio="xMidYMid meet">
<metadata>
Created by potrace 1.14, written by Peter Selinger 2001-2017
</metadata>
<g transform="translate(0.000000,1250.000000) scale(0.100000,-0.100000)"
fill="#000000" stroke="none">
<path d="M5909 12456 c-2 -2 -58 -7 -124 -10 -66 -4 -133 -9 -150 -11 -16 -2
-59 -6 -95 -10 -106 -10 -299 -36 -366 -49 -12 -3 -39 -7 -60 -10 -22 -4 -46
-8 -54 -11 -8 -2 -33 -6 -55 -10 -71 -10 -294 -64 -461 -110 -884 -246 -1709
-706 -2379 -1325 -93 -86 -323 -320 -390 -396 -106 -120 -120 -138 -186 -219
-353 -437 -635 -904 -857 -1422 -185 -430 -344 -979 -412 -1418 -6 -38 -13
-81 -15 -95 -3 -14 -7 -50 -11 -80 -3 -30 -8 -62 -9 -70 -2 -8 -6 -51 -10 -95
-4 -44 -9 -87 -10 -96 -4 -20 -14 -169 -21 -289 -5 -107 -5 -563 0 -610 3 -19
7 -78 11 -130 3 -52 8 -111 10 -130 2 -19 6 -62 10 -95 9 -95 16 -148 20 -175
2 -14 7 -45 10 -70 9 -64 16 -107 39 -235 14 -80 148 -521 162 -534 4 -3 4 3
0 13 -4 11 -9 35 -12 55 -3 20 -9 59 -14 86 -5 28 -12 70 -15 95 -3 25 -8 56
-10 70 -2 14 -7 44 -10 68 -3 23 -7 59 -10 80 -2 20 -7 66 -10 102 -3 36 -8
81 -10 100 -26 213 -26 926 0 1100 2 14 6 57 10 95 3 39 8 84 10 100 2 17 7
53 10 80 29 227 69 378 156 579 230 537 619 984 1124 1294 55 33 147 80 205
103 188 75 349 162 785 421 295 175 401 233 585 315 108 49 285 100 380 109
35 4 19 -4 -70 -35 -170 -58 -421 -174 -520 -241 -14 -9 -32 -20 -40 -23 -8
-4 -32 -17 -52 -29 -127 -78 -239 -149 -353 -224 -193 -125 -432 -268 -532
-317 -88 -43 -217 -98 -240 -101 -32 -5 -21 -18 38 -45 135 -61 202 -75 349
-75 118 0 146 4 225 28 142 43 292 124 465 251 69 50 52 37 265 208 434 346
634 472 891 562 l93 33 -47 44 c-149 141 -394 249 -702 308 -164 31 -449 45
-585 28 -33 -4 -82 -10 -110 -13 -27 -3 -57 -7 -65 -10 -8 -2 -28 -7 -45 -10
-241 -42 -495 -161 -641 -301 -138 -132 -267 -352 -292 -498 -8 -48 -9 -189
-2 -259 l5 -49 -95 -60 c-272 -171 -466 -338 -697 -600 -41 -46 -196 -256
-212 -286 -7 -13 -15 -22 -17 -19 -8 7 156 445 193 517 7 14 13 28 13 32 0 15
160 340 226 461 87 160 168 292 276 454 79 118 270 380 287 393 4 3 22 25 41
50 119 154 402 452 590 622 648 585 1402 1005 2260 1261 101 30 333 90 400
103 14 2 66 13 115 24 75 15 169 31 385 65 14 2 54 7 90 10 36 3 79 8 95 10
150 20 324 28 585 29 294 1 470 -9 735 -39 207 -24 451 -70 750 -140 159 -37
606 -183 720 -234 11 -5 76 -33 145 -61 341 -143 775 -383 1085 -603 96 -68
317 -235 362 -273 12 -11 32 -28 45 -38 216 -178 480 -438 733 -726 189 -214
461 -601 637 -905 115 -199 312 -591 333 -665 1 -3 9 -23 19 -45 90 -202 229
-616 301 -900 5 -16 9 -34 11 -40 2 -5 5 -21 8 -35 3 -14 17 -72 31 -130 l25
-105 -6 69 c-3 38 -7 79 -9 90 -2 12 -6 48 -10 81 -8 80 -16 145 -20 174 -2
13 -7 45 -11 70 -5 41 -24 151 -39 236 -10 53 -47 218 -67 295 -10 41 -20 82
-22 90 -44 182 -203 627 -293 820 -219 467 -387 750 -669 1125 -240 321 -604
709 -879 940 -38 32 -72 61 -75 65 -3 3 -66 53 -140 112 -499 390 -1002 676
-1615 919 -170 67 -630 210 -725 225 -19 3 -38 8 -41 10 -8 5 -326 70 -389 79
-25 4 -52 9 -60 10 -28 5 -165 25 -215 31 -27 3 -61 7 -75 9 -14 2 -65 7 -115
10 -49 4 -103 9 -120 12 -35 5 -681 14 -686 9z"/>
<path d="M4764 10161 c-26 -5 -31 -15 -26 -55 l4 -35 107 0 c58 0 118 0 134
-1 l27 0 0 -2475 0 -2475 123 -122 c188 -187 309 -354 409 -566 143 -301 184
-575 133 -897 -16 -103 -60 -233 -120 -357 -111 -228 -503 -544 -782 -632
-115 -36 -124 -37 -253 -42 -118 -4 -193 7 -290 43 -48 18 -57 23 -196 102
-99 56 -238 110 -356 137 -40 10 -77 22 -83 27 -7 7 -7 8 0 5 6 -3 37 -9 70
-13 156 -17 272 -54 530 -168 233 -104 536 -74 766 75 62 40 61 45 -11 191
-132 262 -301 413 -515 457 -60 13 -194 16 -250 6 -100 -18 -138 -27 -155 -36
-11 -6 -20 -9 -20 -6 0 9 -155 -56 -243 -101 -154 -80 -276 -181 -371 -308
-52 -70 -103 -162 -94 -171 3 -2 16 0 30 5 13 5 55 8 92 6 110 -5 226 -70 376
-211 133 -124 160 -149 220 -198 181 -147 318 -190 518 -161 154 22 299 122
388 266 23 36 48 63 72 75 58 30 191 117 267 174 72 54 264 241 303 295 l22
30 -20 -52 c-79 -210 -242 -452 -431 -643 -274 -276 -621 -477 -1010 -584 -70
-19 -142 -37 -160 -40 -19 -3 -45 -8 -58 -11 -106 -21 -281 -36 -426 -37 -319
0 -560 47 -835 165 -174 74 -370 186 -398 226 -22 33 -262 273 -328 328 -27
22 -134 110 -239 194 -310 248 -472 397 -558 509 -23 30 -45 57 -49 58 -5 2
-8 8 -8 13 0 5 -16 33 -35 63 -47 74 -44 79 7 15 153 -194 280 -308 695 -622
360 -274 427 -331 541 -461 23 -27 42 -45 43 -40 0 5 2 18 5 29 2 11 4 53 5
92 1 255 -126 455 -416 652 -96 65 -260 166 -355 219 -25 13 -52 31 -61 38 -8
8 -19 14 -23 14 -12 0 -239 156 -321 220 -87 70 -227 209 -253 253 -9 15 -20
27 -24 27 -14 0 -57 -112 -74 -195 -10 -45 -20 -191 -18 -253 6 -153 18 -235
55 -382 80 -312 239 -587 441 -765 107 -94 202 -144 343 -181 99 -27 116 -29
225 -28 133 0 164 6 266 56 l61 29 71 -46 c224 -144 576 -279 837 -320 28 -5
57 -10 65 -11 8 -2 44 -6 80 -10 36 -4 79 -8 95 -10 43 -5 414 -4 450 1 17 2
57 7 90 10 86 10 239 41 342 71 583 167 1067 545 1361 1059 44 79 152 306 151
320 0 3 11 40 25 83 32 96 72 268 81 347 4 33 10 69 13 80 3 11 7 1388 8 3060
l3 3041 -231 232 -231 232 64 0 c35 1 381 1 769 1 l706 0 90 -30 c322 -105
594 -343 753 -657 78 -155 144 -363 166 -519 3 -23 7 -50 9 -62 26 -131 26
-579 1 -655 -2 -7 -6 -32 -9 -56 -17 -135 -87 -353 -166 -517 -216 -446 -547
-732 -960 -830 -117 -27 -177 -34 -302 -35 l-98 0 0 -44 0 -44 56 -7 c327 -41
686 -11 994 81 571 172 1034 545 1270 1023 77 154 137 344 155 487 4 27 9 63
11 79 7 39 7 299 0 322 -2 10 -7 45 -11 77 -3 32 -17 101 -31 153 -188 725
-862 1256 -1674 1319 -88 7 -2381 12 -2416 5z"/>
<path d="M3845 9913 c11 -3 62 -25 113 -49 243 -113 404 -274 463 -464 27 -88
33 -128 33 -247 0 -99 0 -101 20 -91 73 38 174 125 213 183 41 60 39 69 -24
157 -145 203 -345 358 -570 443 -80 30 -236 76 -255 74 -7 -1 -4 -4 7 -6z"/>
<path d="M1640 8009 c-258 -31 -436 -89 -595 -195 -158 -105 -305 -305 -354
-485 -16 -55 -20 -94 -17 -168 4 -109 30 -188 96 -290 37 -58 174 -201 191
-201 17 0 9 -18 -40 -97 -148 -240 -268 -584 -316 -908 -4 -22 -8 -47 -10 -55
-2 -8 -7 -42 -10 -75 -3 -33 -8 -71 -10 -85 -27 -160 -26 -658 1 -925 9 -83
14 -81 15 6 2 133 13 330 24 429 2 25 7 68 10 95 3 28 7 68 10 90 2 22 6 58
10 80 3 22 8 58 11 80 7 45 6 40 28 155 23 120 21 114 51 230 14 58 28 114 30
124 3 11 21 70 41 130 193 590 500 993 934 1224 74 40 322 139 350 140 4 0 76
14 90 17 3 1 28 5 55 10 28 4 59 10 70 12 39 10 381 12 445 3 83 -11 133 -20
138 -24 2 -2 -41 -4 -95 -4 -581 1 -1084 -207 -1380 -568 -88 -107 -148 -213
-148 -260 0 -61 73 -200 146 -279 194 -207 460 -259 735 -144 209 87 397 233
733 566 107 106 227 215 265 242 110 76 210 118 306 128 30 3 56 7 58 8 5 5
-45 130 -81 201 -46 92 -142 218 -228 301 -269 260 -649 426 -1119 489 -64 9
-374 10 -440 3z"/>
<path d="M3290 7541 c0 -5 4 -11 9 -13 16 -6 114 -123 163 -196 134 -198 199
-372 213 -573 4 -60 7 -347 4 -366 -7 -39 15 -16 105 110 58 80 110 155 116
167 15 28 -30 153 -112 310 -73 140 -147 245 -255 359 -81 86 -243 221 -243
202z"/>
<path d="M12191 6954 c0 -11 3 -14 6 -6 3 7 2 16 -1 19 -3 4 -6 -2 -5 -13z"/>
<path d="M11251 6657 c-46 -23 -66 -63 -65 -127 3 -91 46 -136 130 -134 81 2
127 58 119 145 -4 59 -21 92 -55 112 -33 20 -95 22 -129 4z"/>
<path d="M12249 6064 c-2 -242 -13 -440 -34 -564 -2 -14 -7 -50 -10 -80 -3
-30 -13 -91 -20 -135 -8 -44 -16 -91 -19 -105 -54 -309 -185 -730 -325 -1049
-44 -99 -207 -429 -221 -446 -4 -5 -20 -32 -35 -60 -155 -281 -498 -746 -733
-994 -167 -175 -338 -343 -452 -441 -35 -30 -68 -59 -74 -65 -87 -78 -344
-279 -456 -355 -36 -25 -67 -48 -70 -51 -9 -11 -265 -176 -370 -239 -391 -235
-784 -422 -1255 -598 -93 -35 -448 -150 -480 -156 -12 -2 -42 -11 -68 -20 -25
-8 -56 -17 -69 -20 -13 -2 -59 -13 -103 -24 -85 -22 -330 -78 -380 -87 -80
-14 -314 -55 -347 -59 -124 -19 -163 -24 -233 -31 -33 -3 -71 -8 -85 -10 -14
-3 -59 -7 -100 -11 -41 -3 -91 -7 -110 -9 -113 -12 -359 -20 -590 -19 -233 0
-311 3 -521 19 -46 3 -146 13 -204 21 -16 2 -55 6 -85 10 -30 3 -64 8 -75 10
-18 4 -63 10 -122 19 -286 41 -750 165 -1053 282 -272 105 -636 278 -776 369
-13 9 -24 14 -24 10 0 -5 321 -219 395 -263 263 -157 532 -294 790 -402 55
-23 109 -46 120 -51 23 -11 185 -70 290 -105 125 -43 297 -93 435 -129 114
-29 172 -42 310 -71 128 -26 400 -68 530 -80 36 -4 79 -8 95 -10 225 -27 813
-27 1090 0 114 11 240 25 275 30 14 2 45 7 70 10 39 5 137 22 235 40 17 3 44
8 60 10 24 4 253 56 349 80 101 25 368 107 490 150 281 100 426 162 686 292
286 143 428 225 658 380 122 82 371 264 402 294 8 8 38 32 65 54 229 181 537
485 766 755 628 742 1061 1618 1268 2565 11 50 23 106 26 125 3 19 8 42 10 50
2 8 7 33 10 55 3 23 7 52 10 65 5 24 13 80 20 135 2 17 9 64 14 105 6 41 13
105 16 143 3 37 7 86 10 110 14 125 22 683 10 695 -3 3 -5 -62 -6 -144z"/>
<path d="M10289 6028 c0 -2 -3 -16 -5 -33 -3 -16 -9 -52 -14 -80 -13 -63 -14
-69 -38 -195 -12 -58 -32 -158 -46 -222 -14 -64 -27 -127 -30 -140 -2 -13 -12
-56 -20 -97 -13 -58 -14 -76 -4 -82 17 -11 28 -2 28 22 0 11 13 33 28 49 22
21 36 27 62 25 38 -4 80 -11 108 -19 9 -3 33 -7 52 -10 31 -5 261 -50 315 -62
11 -3 56 -11 100 -20 92 -17 275 -55 290 -59 6 -1 24 -6 42 -10 48 -11 67 -37
65 -90 -2 -37 1 -45 16 -45 10 0 18 8 19 18 1 15 27 155 48 262 3 14 10 50 16
80 18 93 19 100 60 295 22 105 42 197 45 206 4 14 -6 18 -58 24 -35 4 -72 9
-83 11 -137 25 -194 37 -212 44 -13 5 -23 6 -24 2 0 -4 -2 -15 -4 -24 -2 -10
1 -18 7 -18 24 0 156 -71 195 -104 80 -70 100 -153 67 -292 -29 -126 -28 -125
-210 -90 -11 2 -81 16 -155 30 -74 15 -144 28 -156 31 -21 5 -21 7 -8 56 23
86 85 135 184 145 61 7 71 11 71 28 0 9 -16 16 -47 21 -79 11 -114 16 -137 21
-11 2 -37 7 -56 10 -19 3 -72 15 -118 25 -45 11 -87 17 -92 14 -21 -13 -7 -31
49 -64 81 -46 112 -97 110 -174 -2 -37 -7 -61 -15 -64 -7 -2 -46 2 -86 11 -40
9 -84 18 -98 20 -98 16 -240 49 -267 63 -42 21 -43 40 -9 200 22 102 116 163
261 169 44 1 83 3 88 3 4 1 7 9 7 20 0 15 -10 20 -52 25 -44 6 -207 43 -270
62 -10 3 -18 4 -19 2z"/>
<path d="M9918 5954 c-31 -16 -47 -56 -41 -104 4 -38 175 -302 199 -308 17 -4
16 -9 5 59 -6 30 -13 101 -16 159 -7 115 -29 184 -63 194 -42 14 -58 14 -84 0z"/>
<path d="M10130 4826 c-121 -31 -205 -124 -335 -371 -55 -104 -109 -203 -168
-307 -23 -40 -25 -47 -10 -52 10 -4 21 1 30 13 49 71 73 68 241 -23 76 -40
175 -93 222 -118 47 -25 114 -61 150 -80 36 -19 110 -59 165 -88 166 -88 180
-99 180 -145 0 -22 -4 -50 -8 -61 -5 -15 -3 -23 7 -27 10 -4 25 16 51 66 56
108 121 228 165 304 32 53 37 69 25 71 -8 2 -30 -13 -49 -32 -18 -20 -43 -36
-55 -36 -19 0 -173 76 -348 172 l-73 40 24 46 c45 88 58 97 139 96 58 0 100
-9 215 -47 170 -56 219 -59 279 -21 74 48 129 169 120 260 -6 62 -12 75 -32
68 -9 -4 -12 -16 -8 -38 4 -26 0 -38 -17 -53 -27 -26 -56 -24 -196 17 -150 44
-210 49 -268 20 -41 -20 -99 -71 -140 -125 -14 -17 -14 -14 0 25 25 69 24 213
-2 270 -26 55 -74 104 -135 135 -57 29 -111 36 -169 21z m29 -255 c196 -97
238 -188 160 -343 -16 -32 -31 -58 -33 -58 -1 0 -63 33 -137 73 -74 39 -160
86 -192 102 -76 40 -109 69 -113 101 -4 37 46 112 93 141 53 34 135 28 222
-16z"/>
<path d="M910 4083 c-96 -132 -163 -295 -186 -458 -13 -86 -7 -302 8 -311 4
-3 7 4 5 16 -2 11 0 49 4 83 29 236 108 385 263 491 55 39 185 96 217 96 32 0
21 17 -37 59 -58 42 -135 75 -192 84 -31 5 -36 2 -82 -60z"/>
<path d="M9445 3800 c-52 -13 -121 -49 -173 -88 -89 -67 -451 -429 -440 -440
7 -7 23 -2 49 15 29 19 45 24 66 19 39 -10 699 -670 709 -709 5 -21 0 -37 -19
-66 -18 -28 -23 -41 -15 -49 8 -8 46 23 133 111 67 67 154 153 194 190 56 53
71 72 66 88 -6 18 -9 17 -47 -15 -55 -47 -87 -58 -124 -40 -17 8 -82 67 -146
132 l-117 117 74 77 c133 140 189 270 168 393 -14 80 -34 121 -87 178 -74 80
-190 114 -291 87z m-35 -173 c59 -28 211 -179 239 -238 45 -95 27 -180 -57
-262 l-38 -37 -196 198 c-122 122 -199 208 -203 225 -9 33 10 64 59 102 63 48
114 51 196 12z"/>
<path d="M3375 3009 c-69 -59 -136 -127 -191 -194 -37 -46 -38 -49 -37 -123 1
-43 9 -97 17 -121 20 -55 15 -63 -12 -19 -26 42 -42 102 -36 133 7 41 -10 28
-48 -36 l-36 -62 20 -36 c45 -81 149 -152 241 -165 l38 -5 -35 39 c-85 95
-111 200 -76 313 20 64 92 184 146 242 68 74 77 85 73 85 -2 0 -31 -23 -64
-51z"/>
<path d="M7785 2654 c-132 -45 -317 -106 -411 -135 -147 -45 -170 -56 -166
-71 2 -10 5 -18 6 -18 1 0 16 4 34 9 50 15 80 -1 103 -53 11 -25 83 -233 160
-462 155 -459 153 -448 89 -492 -36 -24 -47 -48 -20 -45 8 0 152 48 320 105
168 57 355 119 416 137 l111 34 -25 61 c-14 34 -44 115 -67 181 -33 97 -44
119 -59 117 -14 -3 -16 -10 -11 -34 11 -48 9 -180 -4 -224 -25 -92 -76 -137
-199 -178 -91 -31 -123 -32 -145 -8 -9 10 -50 115 -91 235 l-74 217 41 11
c108 31 188 -3 242 -103 15 -27 55 -40 55 -18 0 6 -11 36 -24 68 -34 81 -116
325 -116 345 0 18 -9 21 -32 12 -9 -4 -13 -22 -11 -61 3 -108 -39 -179 -122
-208 -25 -8 -45 -14 -45 -12 0 1 -31 96 -70 210 -38 115 -70 222 -70 237 0 19
8 34 25 45 35 23 173 64 215 64 45 -1 109 -30 148 -68 34 -33 102 -134 102
-152 0 -12 10 -13 29 -1 11 7 10 19 -8 67 -12 32 -35 105 -52 162 -16 58 -30
106 -31 107 -2 1 -111 -35 -243 -81z"/>
<path d="M6467 2354 c-1 -1 -87 -5 -191 -7 -143 -4 -191 -8 -197 -19 -6 -9 -1
-14 19 -16 47 -5 83 -24 93 -50 12 -30 16 -123 35 -687 3 -99 7 -196 8 -215 6
-78 -18 -111 -89 -122 -11 -2 -21 -11 -23 -21 -4 -17 3 -18 85 -13 48 3 156 9
238 12 83 3 179 7 215 9 36 2 132 4 213 5 l148 1 -6 83 c-4 45 -8 127 -10 181
-2 55 -4 108 -4 118 -1 23 -41 23 -41 -1 0 -35 -31 -138 -56 -187 -39 -75
-107 -141 -154 -150 -11 -2 -24 -6 -28 -9 -8 -5 -118 -9 -169 -7 -52 2 -55 26
-69 431 -4 107 -8 218 -9 245 -7 129 -8 322 -1 341 7 22 41 41 86 47 14 2 26
11 28 21 3 14 -5 16 -58 14 -34 -1 -62 -3 -63 -4z"/>
<path d="M5259 1499 c-33 -12 -52 -48 -52 -96 0 -28 7 -42 31 -65 18 -15 41
-29 52 -29 11 -1 26 -2 33 -3 26 -4 68 17 86 42 22 31 22 92 0 118 -31 37 -98
52 -150 33z"/>
<path d="M2390 1456 c0 -2 8 -10 18 -17 15 -13 16 -12 3 4 -13 16 -21 21 -21
13z"/>
<path d="M2430 1426 c0 -2 8 -10 18 -17 15 -13 16 -12 3 4 -13 16 -21 21 -21
13z"/>
<path d="M2630 1260 c36 -30 110 -82 110 -76 0 5 -95 76 -120 89 -8 5 -4 -1
10 -13z"/>
</g>
</svg>
